<?xml version="1.0" encoding="utf-8"?>
<!-- Generator: Adobe Illustrator 23.1.0, SVG Export Plug-In . SVG Version: 6.00 Build 0)  -->
<svg version="1.1" id="Layer_1" xmlns="http://www.w3.org/2000/svg" xmlns:xlink="http://www.w3.org/1999/xlink" x="0px" y="0px"
	 viewBox="0 0 512 512" style="enable-background:new 0 0 512 512;" xml:space="preserve">
<style type="text/css">
	.st0{fill:#FFFFFF;}
</style>
<g>
	<g>
		<path class="st0" d="M422,30h-53.5V13.5C368.5,6.1,362.4,0,355,0h-34.8c-4.1,0-7.5,3.4-7.5,7.5s3.4,7.5,7.5,7.5h33.3v15h-195V15
			h129.7c4.1,0,7.5-3.4,7.5-7.5S292.4,0,288.2,0H157c-7.4,0-13.5,6.1-13.5,13.5V30H90c-10.8,0-19.5,8.7-19.5,19.5v45.7
			c0,4.1,3.4,7.5,7.5,7.5s7.5-3.4,7.5-7.5V49.5c0-2.5,2-4.5,4.5-4.5h81.5v15H108c-4.1,0-7.5,3.4-7.5,7.5v407c0,4.1,3.4,7.5,7.5,7.5
			h296c4.1,0,7.5-3.4,7.5-7.5v-26.8c0-4.1-3.4-7.5-7.5-7.5s-7.5,3.4-7.5,7.5V467h-281V75h56v1.8c0,12.3,10,22.2,22.2,22.2h124.5
			c12.3,0,22.2-10,22.2-22.2V75h56v340.7c0,4.1,3.4,7.5,7.5,7.5s7.5-3.4,7.5-7.5V67.5c0-4.1-3.4-7.5-7.5-7.5h-63.5V45H422
			c2.5,0,4.5,2,4.5,4.5v443c0,2.5-2,4.5-4.5,4.5H90c-2.5,0-4.5-2-4.5-4.5V127.3c0-4.1-3.4-7.5-7.5-7.5s-7.5,3.4-7.5,7.5v365.2
			c0,10.8,8.7,19.5,19.5,19.5h332c10.8,0,19.5-8.7,19.5-19.5v-443C441.5,38.7,432.8,30,422,30z M325.5,76.8c0,4-3.2,7.2-7.2,7.2
			H193.7c-4,0-7.2-3.2-7.2-7.2V75h139V76.8z M325.5,60h-139V45h139V60z"/>
		<path class="st0" d="M199.4,133c-15.2,0-27.5,12.3-27.5,27.5v7.5h-7.5c-15.2,0-27.5,12.3-27.5,27.5s12.3,27.5,27.5,27.5h7.5v7.5
			c0,15.2,12.3,27.5,27.5,27.5s27.5-12.3,27.5-27.5V223h7.5c15.2,0,27.5-12.3,27.5-27.5S249.6,168,234.4,168h-7.5v-7.5
			C226.9,145.3,214.6,133,199.4,133z M234.4,183c6.9,0,12.5,5.6,12.5,12.5s-5.6,12.5-12.5,12.5h-11c-6.3,0-11.5,5.2-11.5,11.5v11
			c0,6.9-5.6,12.5-12.5,12.5s-12.5-5.6-12.5-12.5v-11c0-6.3-5.2-11.5-11.5-11.5h-11c-6.9,0-12.5-5.6-12.5-12.5s5.6-12.5,12.5-12.5
			h11c6.3,0,11.5-5.2,11.5-11.5v-11c0-6.9,5.6-12.5,12.5-12.5s12.5,5.6,12.5,12.5v11c0,6.3,5.2,11.5,11.5,11.5H234.4z"/>
		<path class="st0" d="M289.5,161.6h69.5c4.1,0,7.5-3.4,7.5-7.5s-3.4-7.5-7.5-7.5h-69.5c-4.1,0-7.5,3.4-7.5,7.5
			S285.3,161.6,289.5,161.6z"/>
		<path class="st0" d="M289.5,191.6h69.5c4.1,0,7.5-3.4,7.5-7.5s-3.4-7.5-7.5-7.5h-69.5c-4.1,0-7.5,3.4-7.5,7.5
			S285.3,191.6,289.5,191.6z"/>
		<path class="st0" d="M289.5,221.6h69.5c4.1,0,7.5-3.4,7.5-7.5s-3.4-7.5-7.5-7.5h-69.5c-4.1,0-7.5,3.4-7.5,7.5
			S285.3,221.6,289.5,221.6z"/>
		<path class="st0" d="M289.5,251.6H331c4.1,0,7.5-3.4,7.5-7.5s-3.4-7.5-7.5-7.5h-41.5c-4.1,0-7.5,3.4-7.5,7.5
			S285.3,251.6,289.5,251.6z"/>
		<path class="st0" d="M361.9,300.1H150.1c-4.1,0-7.5,3.4-7.5,7.5s3.4,7.5,7.5,7.5h211.7c4.1,0,7.5-3.4,7.5-7.5
			S366,300.1,361.9,300.1L361.9,300.1z"/>
		<path class="st0" d="M361.9,330.1H150.1c-4.1,0-7.5,3.4-7.5,7.5s3.4,7.5,7.5,7.5h211.7c4.1,0,7.5-3.4,7.5-7.5
			S366,330.1,361.9,330.1L361.9,330.1z"/>
		<path class="st0" d="M369.4,367.6c0-4.1-3.4-7.5-7.5-7.5H150.1c-4.1,0-7.5,3.4-7.5,7.5s3.4,7.5,7.5,7.5h211.7
			C366,375.1,369.4,371.8,369.4,367.6L369.4,367.6z"/>
		<path class="st0" d="M150.1,390.1c-4.1,0-7.5,3.4-7.5,7.5s3.4,7.5,7.5,7.5h126.6c4.1,0,7.5-3.4,7.5-7.5s-3.4-7.5-7.5-7.5H150.1z"
			/>
	</g>
</g>
</svg>
